<svg xmlns="http://www.w3.org/2000/svg" width="598" height="1040" viewBox="0 0 598 1040"><path fill="#E8D856" fill-opacity=".5" fill-rule="evenodd" d="M177.242 557.09c.73-1.823 19.518-20.612 56.365-56.365-2.677-4.847-2.677-11.232 0-19.153.365-.73 4.743-7.297 13.134-19.7h7.114l2.736-9.304c18.212-7.385 31.163-13.77 38.855-19.153 7.691-5.384 14.805-13.046 21.342-22.985 0-5.472 3.648-10.032 10.945-13.68.851-1.394 1.216-3.4 1.094-6.02h7.662v-9.85l9.303-3.284 1.094-8.209h9.85c1.46-5.107 2.737-8.39 3.831-9.85 1.095-1.46 3.648-1.46 7.662 0 7.296-4.378 14.593-11.127 21.89-20.248.364-12.04 4.56-21.342 12.586-27.91l-1.642-13.133c11.31-18.97 24.808-36.483 40.496-52.535-3.284-13.499-1.642-29.004 4.925-46.515l16.417-22.985c-2.189-7.66-2.189-13.316 0-16.964 9.486-9.485 25.356-18.971 47.61-28.456l5.473-31.193 14.228-26.268V65.67l-3.83-8.756L538.42 0l30.646 17.512h12.04l2.188 7.661 14.228 12.04-1.641 17.511-20.597 24.89c1.104 5.52 1.104 11.27 0 17.248-1.104 5.977-3.177 11.45-6.218 16.417l-3.284 35.57c-1.824 11.31-4.013 19.154-6.566 23.532-3.831 6.567-22.84 20.213-24.626 22.437-1.192 1.482-1.192 4.218 0 8.208-.298 4.116-3.034 8.312-8.209 12.587-7.762 6.412-8.756-1.095-16.964 8.208-5.473 6.202-11.675 22.62-18.607 49.252l-6.388 4.622-1.82 21.646-16.417 9.303-1.095 10.945h6.567l-1.094 9.85c-9.486 19.336-19.154 30.098-29.004 32.287-3.038 5.044 2.189 7.661 0 15.87-2.19 8.209-51.988 101.787-63.48 100.692-11.375 19.175-22.138 39.423-32.287 60.744l-1.095 7.661-11.492 13.134-22.437 30.098-15.322 43.232-7.662 1.642-4.378 8.209v26.267l-16.417 29.551-1.642 24.626-3.283 6.567 10.397 1.094c3.649-8.026 11.857-13.316 24.626-15.87 2.736 0-1.637 1.991 7.662 7.115 6.202-2.554 12.586 0 19.153 7.661l12.587 42.137-3.284 11.493 8.209 16.417c10.215 4.013 12.769 14.046 7.661 30.098 8.756 22.984 12.587 45.056 11.492 66.216l2.19 3.83v10.398l-27.91 49.8c-.182 7.605-3.1 15.996-8.756 25.172-5.655 9.177-12.405 16.473-20.248 21.89-2.805 15.561-4.812 24.864-6.02 27.91-1.207 3.044-3.396 4.321-6.566 3.83-3.649-4.378-7.297-7.661-10.945-9.85-3.648-2.19-9.85-5.473-18.606-9.85l-4.378-7.662c-28.822-2.554-44.144-7.297-45.969-14.228-2.262-1.144-3.539-4.792-3.83-10.945l-9.303 4.378c-18.242-.365-30.281-5.29-36.118-14.776-2.19-14.228-4.378-34.476 1.065-48.021-4.358-7.022-7.085-18.377-8.18-34.065l-10.944 15.323 8.756 7.114 3.83 11.628-1.641 26.132-35.571 36.665c-.365-2.919-1.824-3.649-4.378-2.19-2.554 1.46-7.296 3.102-14.228 4.926-25.058-7.328-40.198-12.618-45.421-15.87-7.834-4.878-9.85-11.492-12.587-20.248-1.824-5.837-.912-15.642 2.737-29.415l-29.551 2.053-14.776-16.417c-3.648-5.473-4.195-11.492-1.642-18.06 18.971-25.902 45.056-48.339 78.256-67.31l-4.378-4.378c-1.824-11.31 1.702-20.186 10.58-26.63 3.161-1.218 5.655-1.218 7.479 0l9.303-6.204 8.208-17.512-15.322-14.775-2.19-14.229c-4.986 8.391-9.91 11.857-14.775 10.398-7.296-2.189-18.606-8.209-16.964-22.984 1.094-9.85 13.316-21.89 36.665-36.118l9.303-3.83-12.04-3.831-6.019-20.795-35.023-3.284-31.193 9.85-9.303-1.094 1.642-13.681 9.85-8.209 11.492 1.095 20.248-16.417 16.964 1.641c0-8.026 4.378-12.586 13.134-13.68 6.531-5.843 13.215-11.177 20.053-16.005h17.707v-12.452l14.588-10.539 5.112 5.066 10.945 6.567 12.04-1.094 4.925-5.473-1.095-5.066 8.209-5.878-.957-11.065c-1.916-5.393-2.51-9-1.78-10.825z"/></svg>